<svg width="64" height="32" viewBox="0 0 64 32" xmlns="http://www.w3.org/2000/svg">
  <g fill="#FFD60A">
    <path d="M30 22C23 21 17 16 14 9c6 1 11 5 14 11z"></path>
    <path d="M24 24c-6 1-12-2-16-8 6-1 11 1 15 6z"></path>
    <path d="M20 17c-5-1-9-5-11-11 5 1 9 4 11 9z"></path>
    <path d="M14 24c-5 2-10 1-14-3 5-2 9-1 13 2z"></path>
    <path d="M34 22c7-1 13-6 16-13-6 1-11 5-14 11z"></path>
    <path d="M40 24c6 1 12-2 16-8-6-1-11 1-15 6z"></path>
    <path d="M44 17c5-1 9-5 11-11-5 1-9 4-11 9z"></path>
    <path d="M50 24c5 2 10 1 14-3-5-2-9-1-13 2z"></path>
    <rect x="31" y="17" width="2" height="10" rx="1"></rect>
  </g>
</svg>